<svg id="Layer_1" data-name="Layer 1" xmlns="http://www.w3.org/2000/svg" viewBox="0 0 225.35 68.79"><defs><style>.cls-1{fill:#fff;}</style></defs><title>life_prof_ed_scr</title><path class="cls-1" d="M224.73,52.36H85.34a.63.63,0,0,1,0-1.25H224.73a.63.63,0,0,1,0,1.25Z"/><path class="cls-1" d="M31.1,6.08c-1.86,1.7-10.64,10.53-12.63,12.63l16.77,18,6.81,7.37c2.36,2.27,5.1,4.65,8,5.8A13.69,13.69,0,0,0,54,51.05c.4,0,.76.12.76.47s-.3.58-1.41.58H48.24c-1.75,0-2.81,0-4-.11-3.16-.29-4.74-1.58-7.25-3.8L14,22.8l-.64-.87H13v5.32c0,5.38,0,10,.18,12.51.11,1.64.64,2.93,2.1,3.16a23.92,23.92,0,0,0,2.87.23c.46,0,.75.18.75.47s-.47.59-1.11.59c-3.27,0-7-.18-8.42-.18s-5,.18-7.36.18c-.77,0-1.17-.18-1.17-.59s.23-.47.93-.47a9.45,9.45,0,0,0,2.11-.23c1.16-.23,1.45-1.52,1.69-3.22.29-2.45.29-7.07.29-12.45V17c0-8.89,0-10.53-.11-12.4S5.2,1.64,3.27,1.23A11.73,11.73,0,0,0,1,1.05c-.64,0-1-.11-1-.52S.41,0,1.28,0C4.39,0,8.07.18,9.47.18S14.56,0,16.55,0c.82,0,1.22.12,1.22.53s-.35.52-.82.52a8.44,8.44,0,0,0-1.63.18c-1.58.29-2.05,1.29-2.17,3.33C13,6.43,13,8.07,13,17v2.57h.29c2-2.16,10.52-10.88,12.22-12.86s2.93-3.39,2.93-4.39c0-.64-.24-1-.83-1.17S26.9.88,26.9.53s.29-.53.93-.53c1.23,0,4.45.18,6,.18H45.07C46.46.17,50.14,0,52.24,0c.87,0,1.29.12,1.29.53s-.36.52-.94.52a9.14,9.14,0,0,0-1.69.17c-1.58.3-2,1.29-2.16,3.33-.12,1.87-.12,3.5-.12,12.36v8.17c0,8.45,1.7,12,4.55,14.35a10.78,10.78,0,0,0,7.29,2.39,11.44,11.44,0,0,0,8.05-3.15c3.21-3.21,3.38-8.46,3.38-14.46v-7.3c0-8.86,0-10.49-.11-12.36s-.59-2.91-2.51-3.33a12,12,0,0,0-2.1-.17c-.64,0-1-.12-1-.52S66.59,0,67.4,0c3,0,6.65.17,6.71.17.7,0,4.37-.17,6.65-.17C81.58,0,82,.12,82,.53s-.35.52-1,.52a9.33,9.33,0,0,0-1.7.17c-1.57.3-2,1.29-2.16,3.33C77,6.42,77,8.05,77,16.91v6.25c0,6.47-.64,13.36-5.54,17.55a17.41,17.41,0,0,1-12.14,4.21c-3.09,0-8.69-.18-12.94-4-3-2.69-5.19-7-5.19-15.46V16.91c0-8.86,0-10.49-.12-12.36s-.69-3.33-2.51-3.33S34.12,3.32,31.1,6.08Z"/><path class="cls-1" d="M88.12,60.14H86v-1.6H92v1.6H89.85v6.79H88.12Z"/><path class="cls-1" d="M93,58.27h1.7v3.1a2,2,0,0,1,1.66-1c1.2,0,1.89.84,1.89,2.17v4.38h-1.7V63.06c0-.76-.34-1.14-.91-1.14s-.94.38-.94,1.14v3.87H93Z"/><path class="cls-1" d="M99.33,63.79v-.11c0-1.91,1.18-3.3,2.8-3.3,1.84,0,2.74,1.5,2.74,3.42,0,.1,0,.3,0,.55H101a1.37,1.37,0,0,0,1.39,1.3,1.86,1.86,0,0,0,1.34-.64l.88,1a3,3,0,0,1-2.29,1A3,3,0,0,1,99.33,63.79Zm3.89-.56c-.07-.89-.45-1.44-1.09-1.44s-1,.52-1.13,1.44Z"/><path class="cls-1" d="M108.72,63.67V58.54h1.74v5.14c0,1.19.56,1.78,1.46,1.78s1.47-.58,1.47-1.74V58.54h1.72v5.09c0,2.32-1.27,3.43-3.21,3.43S108.72,65.94,108.72,63.67Z"/><path class="cls-1" d="M116.64,60.5h1.7v.87a2,2,0,0,1,1.66-1c1.2,0,1.89.84,1.89,2.17v4.38h-1.7V63.06c0-.76-.33-1.14-.91-1.14s-.94.38-.94,1.14v3.87h-1.7Z"/><path class="cls-1" d="M123.29,58.27h1.77v1.55h-1.77Zm0,2.23H125v6.43h-1.71Z"/><path class="cls-1" d="M125.94,60.5h1.77l1.2,4.27,1.21-4.27h1.73L129.69,67h-1.58Z"/><path class="cls-1" d="M132.23,63.79v-.11c0-1.91,1.19-3.3,2.81-3.3,1.83,0,2.73,1.5,2.73,3.42,0,.1,0,.3,0,.55h-3.84a1.38,1.38,0,0,0,1.39,1.3,1.88,1.88,0,0,0,1.35-.64l.87,1a3,3,0,0,1-2.29,1A3,3,0,0,1,132.23,63.79Zm3.9-.56c-.07-.89-.46-1.44-1.09-1.44s-1,.52-1.13,1.44Z"/><path class="cls-1" d="M138.94,60.5h1.7v1.14a1.7,1.7,0,0,1,1.74-1.25v1.85h-.07c-1.05,0-1.67.65-1.67,2v2.7h-1.7Z"/><path class="cls-1" d="M142.91,66.16l.74-1.2a3,3,0,0,0,1.72.72c.48,0,.68-.22.68-.49v0c0-.37-.48-.53-1.17-.83-.92-.4-1.69-.85-1.69-1.94v0a2,2,0,0,1,2.2-2,3.79,3.79,0,0,1,2.12.69l-.68,1.23a2.87,2.87,0,0,0-1.46-.56c-.41,0-.63.21-.63.46v0c0,.34.48.53,1.17.84.93.45,1.7.92,1.7,1.93v0a2,2,0,0,1-2.27,2A3.87,3.87,0,0,1,142.91,66.16Z"/><path class="cls-1" d="M148.7,58.27h1.78v1.55H148.7Zm0,2.23h1.7v6.43h-1.7Z"/><path class="cls-1" d="M152.17,65.32V61.94h-.65V60.5h.65V58.86h1.7V60.5h1.27v1.44h-1.27v3c0,.37.17.55.53.55a1.58,1.58,0,0,0,.73-.18V66.7a2.37,2.37,0,0,1-1.26.34C152.89,67,152.17,66.66,152.17,65.32Z"/><path class="cls-1" d="M160.06,60.5h1.73L159.68,67c-.44,1.28-.93,1.77-1.93,1.77a2.67,2.67,0,0,1-1.38-.38l.46-1.27a1.5,1.5,0,0,0,.7.21.52.52,0,0,0,.55-.41L155.9,60.5h1.77l1.21,4.26Z"/><path class="cls-1" d="M165.14,63.8v-.13a3,3,0,1,1,6,0v.13a3,3,0,1,1-6,0Zm4.36,0v-.09c0-1-.52-1.83-1.34-1.83s-1.34.78-1.34,1.82v.09c0,1,.54,1.83,1.35,1.83S169.5,64.82,169.5,63.78Z"/><path class="cls-1" d="M172.52,61.94h-.64V60.55h.64v-.43a2,2,0,0,1,.48-1.44,1.93,1.93,0,0,1,1.41-.48,3.55,3.55,0,0,1,1.05.14v1.41a2,2,0,0,0-.62-.11c-.4,0-.63.2-.63.66v.25h1.25v1.39h-1.23v5h-1.71Z"/><path class="cls-1" d="M179.12,58.54h1.74v3.62l2.75-3.62h2l-2.82,3.56,2.94,4.83h-2l-2.1-3.45-.78,1v2.47h-1.74Z"/><path class="cls-1" d="M186.21,65.1V65c0-1.41.92-2,2.24-2a3.36,3.36,0,0,1,1.34.27v-.19c0-.75-.44-1.13-1.21-1.13a3.66,3.66,0,0,0-1.48.36L186.64,61a4.49,4.49,0,0,1,2.19-.52,2.32,2.32,0,0,1,2.62,2.6v3.9h-1.67v-.69a2,2,0,0,1-1.67.81A1.83,1.83,0,0,1,186.21,65.1Zm3.61-.28v-.54a2.37,2.37,0,0,0-.95-.2c-.63,0-1,.31-1,.9v0a.75.75,0,0,0,.83.8A1,1,0,0,0,189.82,64.82Z"/><path class="cls-1" d="M192.84,60.5h1.71v.87a2,2,0,0,1,1.65-1c1.2,0,1.9.84,1.9,2.17v4.38h-1.71V63.06c0-.76-.33-1.14-.91-1.14s-.93.38-.93,1.14v3.87h-1.71Z"/><path class="cls-1" d="M199,66.16l.74-1.2a3,3,0,0,0,1.71.72c.48,0,.69-.22.69-.49v0c0-.37-.48-.53-1.18-.83-.91-.4-1.69-.85-1.69-1.94v0a2,2,0,0,1,2.21-2,3.84,3.84,0,0,1,2.12.69l-.68,1.23a2.87,2.87,0,0,0-1.47-.56c-.4,0-.62.21-.62.46v0c0,.34.48.53,1.16.84.94.45,1.71.92,1.71,1.93v0a2,2,0,0,1-2.27,2A3.87,3.87,0,0,1,199,66.16Z"/><path class="cls-1" d="M204.5,65.1V65c0-1.41.92-2,2.24-2a3.36,3.36,0,0,1,1.34.27v-.19c0-.75-.44-1.13-1.21-1.13a3.57,3.57,0,0,0-1.47.36L204.93,61a4.49,4.49,0,0,1,2.19-.52,2.32,2.32,0,0,1,2.62,2.6v3.9h-1.67v-.69a2,2,0,0,1-1.67.81A1.83,1.83,0,0,1,204.5,65.1Zm3.61-.28v-.54a2.33,2.33,0,0,0-1-.2c-.62,0-1,.31-1,.9v0a.75.75,0,0,0,.83.8A1,1,0,0,0,208.11,64.82Z"/><path class="cls-1" d="M210.61,66.16l.75-1.2a3,3,0,0,0,1.71.72c.48,0,.69-.22.69-.49v0c0-.37-.48-.53-1.18-.83-.91-.4-1.69-.85-1.69-1.94v0a2,2,0,0,1,2.21-2,3.84,3.84,0,0,1,2.12.69l-.68,1.23a2.87,2.87,0,0,0-1.47-.56c-.4,0-.62.21-.62.46v0c0,.34.48.53,1.16.84.94.45,1.71.92,1.71,1.93v0a2,2,0,0,1-2.27,2A3.88,3.88,0,0,1,210.61,66.16Z"/><path class="cls-1" d="M90.82,7.54c0,2,0,3.05.33,3.33s.66.34,1.87.34c.82,0,1.43,0,1.82-.43a2,2,0,0,0,.4-.93c0-.14.05-.24.17-.24s.12.08.12.27a12.74,12.74,0,0,1-.23,1.78c-.09.34-.17.42-1,.42-1.11,0-1.92,0-2.62-.05s-1.25,0-1.89,0h-.88l-1.07,0c-.2,0-.31,0-.31-.15s.06-.13.25-.13a2.65,2.65,0,0,0,.56-.06c.31-.06.38-.4.44-.85.08-.65.08-1.88.08-3.3V4.81c0-2.36,0-2.79,0-3.29S88.7.75,88.18.64a2.24,2.24,0,0,0-.51-.05c-.17,0-.26,0-.26-.14s.11-.14.34-.14c.73,0,1.71,0,2.13,0s1.5,0,2.1,0c.22,0,.33,0,.33.14s-.09.14-.28.14a4.42,4.42,0,0,0-.61.05c-.41.07-.54.34-.57.88s0,.93,0,3.29Z"/><path class="cls-1" d="M98,4.81C98,2.45,98,2,98,1.52s-.19-.79-.53-.87a2.53,2.53,0,0,0-.56-.06c-.15,0-.24,0-.24-.15s.12-.13.37-.13c.59,0,1.56,0,2,0s1.31,0,1.89,0c.21,0,.33,0,.33.13s-.09.15-.25.15a2.68,2.68,0,0,0-.46.05c-.42.07-.55.34-.58.88s0,.93,0,3.29V7.54c0,1.5,0,2.72.06,3.39,0,.42.16.7.62.76a6.83,6.83,0,0,0,.79.06c.18,0,.25.05.25.13s-.12.15-.29.15c-1,0-2,0-2.42,0s-1.33,0-2,0c-.2,0-.31,0-.31-.15s.06-.13.24-.13a2.58,2.58,0,0,0,.56-.06c.31-.06.41-.32.45-.77C98,10.26,98,9,98,7.54Z"/><path class="cls-1" d="M106.15,7.54c0,1.48,0,2.65.07,3.3,0,.45.14.79.61.85a6.83,6.83,0,0,0,.77.06c.21,0,.27.05.27.13s-.11.15-.34.15c-1,0-2,0-2.36,0s-1.38,0-2,0c-.22,0-.32,0-.32-.15s.06-.13.23-.13a2.65,2.65,0,0,0,.56-.06c.31-.06.38-.4.45-.85.07-.65.07-1.82.07-3.3V4.81c0-2.36,0-2.79,0-3.29S104,.75,103.5.64a3.32,3.32,0,0,0-.61-.05c-.15,0-.26,0-.26-.12s.12-.16.35-.16l1.26,0,1,0c.59,0,3.73,0,4.09,0a2.46,2.46,0,0,0,.63-.06,1.29,1.29,0,0,1,.25-.09.13.13,0,0,1,.11.14c0,.11-.08.29-.12.7,0,.15-.05,1.06-.08,1.25s0,.22-.16.22-.14-.08-.15-.25a1.59,1.59,0,0,0-.09-.59,1.12,1.12,0,0,0-1-.46l-2.38-.05c-.1,0-.14.05-.14.22V5.24c0,.09,0,.14.1.14h2c.26,0,.48,0,.7,0a.82.82,0,0,0,.66-.28c.08-.09.11-.15.2-.15s.1,0,.1.14-.08.48-.13,1c0,.31-.06,1-.06,1.13s0,.29-.15.29-.13-.11-.13-.21a1.71,1.71,0,0,0-.09-.48.91.91,0,0,0-.79-.56c-.39-.05-2-.05-2.3-.05-.07,0-.1,0-.1.14Z"/><path class="cls-1" d="M113.14,4.81c0-2.36,0-2.79,0-3.29s-.16-.77-.67-.88a3.2,3.2,0,0,0-.6-.05c-.18,0-.27,0-.27-.14s.11-.14.34-.14l1.26,0,1,0c.5,0,3.59,0,3.88,0s.54-.06.67-.09a1.05,1.05,0,0,1,.24-.06c.08,0,.1.06.1.14a9.75,9.75,0,0,0-.13,1c0,.15,0,.83-.07,1s0,.17-.16.17-.14-.08-.14-.22a1.61,1.61,0,0,0-.09-.56c-.11-.28-.26-.46-1-.55-.26,0-1.89-.07-2.2-.07-.08,0-.11.05-.11.16V5.21c0,.11,0,.17.11.17.34,0,2.12,0,2.48,0a1.1,1.1,0,0,0,.74-.23c.11-.13.17-.2.25-.2s.11,0,.11.12a9.92,9.92,0,0,0-.12,1.13c0,.31-.07.93-.07,1s0,.3-.14.3a.13.13,0,0,1-.14-.14,3,3,0,0,0-.06-.56c-.07-.31-.29-.55-.87-.61-.29,0-1.82,0-2.2,0-.07,0-.09.06-.09.15V7.54c0,.52,0,2,0,2.4,0,1.07.28,1.3,1.86,1.3a4.1,4.1,0,0,0,1.46-.18c.4-.19.59-.52.7-1.15,0-.17.06-.23.17-.23s.12.12.12.27a11.88,11.88,0,0,1-.2,1.73c-.11.4-.25.4-.84.4-1.16,0-2,0-2.68-.05s-1.15,0-1.61,0h-.89c-.35,0-.76,0-1.07,0s-.31,0-.31-.15.07-.13.25-.13a2.65,2.65,0,0,0,.56-.06c.31-.06.39-.4.45-.85.08-.65.08-1.88.08-3.3Z"/><path class="cls-1" d="M124.25,7.54c0,2,0,3.05.33,3.33s.66.34,1.87.34c.83,0,1.43,0,1.82-.43a2,2,0,0,0,.4-.93c0-.14.05-.24.17-.24s.12.08.12.27a11.38,11.38,0,0,1-.23,1.78c-.09.34-.17.42-1,.42-1.12,0-1.93,0-2.62-.05s-1.26,0-1.9,0h-.88l-1.07,0c-.2,0-.31,0-.31-.15s.06-.13.25-.13a2.65,2.65,0,0,0,.56-.06c.31-.06.38-.4.45-.85.07-.65.07-1.88.07-3.3V4.81c0-2.36,0-2.79,0-3.29s-.15-.77-.66-.88a2.4,2.4,0,0,0-.52-.05c-.17,0-.26,0-.26-.14s.11-.14.34-.14c.73,0,1.71,0,2.13,0s1.5,0,2.11,0c.21,0,.32,0,.32.14s-.09.14-.28.14a4.16,4.16,0,0,0-.6.05c-.42.07-.55.34-.58.88s0,.93,0,3.29Z"/><path class="cls-1" d="M129.63,6.17A6,6,0,0,1,136,.09c3.86,0,6.26,2.25,6.26,5.8a6.13,6.13,0,0,1-6.42,6.36A5.9,5.9,0,0,1,129.63,6.17Zm10.49.3c0-3.48-2-5.63-4.54-5.63-1.78,0-3.82,1-3.82,4.85,0,3.23,1.79,5.78,4.76,5.78C137.61,11.47,140.12,11,140.12,6.47Z"/><path class="cls-1" d="M145.91,9.92c0,1.21.23,1.62.54,1.72a2.27,2.27,0,0,0,.8.11c.17,0,.27,0,.27.13s-.14.15-.36.15c-1,0-1.63,0-1.92,0s-.87,0-1.68,0c-.2,0-.34,0-.34-.15s.1-.13.25-.13a2.87,2.87,0,0,0,.7-.07c.4-.13.46-.58.48-1.93l.14-9.17c0-.31.05-.53.2-.53s.31.2.57.48,2.55,2.73,4.81,5c1,1,3.15,3.28,3.41,3.53h.08l-.16-7c0-1-.15-1.24-.52-1.4a2.68,2.68,0,0,0-.83-.09c-.18,0-.24,0-.24-.14s.17-.14.4-.14c.81,0,1.55,0,1.87,0s.76,0,1.52,0c.21,0,.36,0,.36.14s-.09.14-.28.14a1.54,1.54,0,0,0-.46.05c-.44.12-.56.45-.58,1.32l-.17,9.78c0,.34-.06.48-.2.48s-.36-.17-.53-.34c-1-.93-3-3-4.57-4.56s-3.41-3.61-3.69-3.91h-.05Z"/><path class="cls-1" d="M168.38,11c0,.42,0,.45-.2.56a8.68,8.68,0,0,1-3.73.7c-3.8,0-7.17-1.8-7.17-6.08A5.81,5.81,0,0,1,160,1.1a7.51,7.51,0,0,1,4.17-1,19,19,0,0,1,2.75.25,9.2,9.2,0,0,0,1.22.17c.19,0,.22.08.22.19a20.5,20.5,0,0,0-.11,2.54c0,.25,0,.33-.17.33s-.14-.08-.16-.2a2.13,2.13,0,0,0-.52-1.29A5,5,0,0,0,163.92.87a4.47,4.47,0,0,0-3.07,1,4.61,4.61,0,0,0-1.43,3.8c0,3.33,2.13,5.83,5.4,5.83a3.48,3.48,0,0,0,1.32-.17.56.56,0,0,0,.29-.58V9.26c0-.78,0-1.37,0-1.83s-.16-.78-.67-.89a3.37,3.37,0,0,0-.61,0c-.14,0-.23,0-.23-.13s.11-.15.33-.15c.8,0,1.78,0,2.25,0s1.3,0,1.81,0c.2,0,.31,0,.31.15s-.09.13-.2.13a2.35,2.35,0,0,0-.42,0c-.42.08-.57.34-.59.89s0,1.08,0,1.86Z"/><path class="cls-1" d="M89.77,21.65a3.42,3.42,0,0,1-.79-2.2c0-1.23,1.06-2.86,3.76-2.86a5.33,5.33,0,0,1,1.88.33c.26.09.26.22.26.4a17.66,17.66,0,0,1-.17,2c0,.23-.09.26-.18.26s-.11-.06-.11-.29A2,2,0,0,0,94,18a2.13,2.13,0,0,0-1.72-.69A1.66,1.66,0,0,0,90.59,19c0,1.46,1.33,2.7,2.57,4.08.53.61,2.44,2.33,2.73,2.59a4.66,4.66,0,0,0,.74-2.39.9.9,0,0,0-.29-.71,1.14,1.14,0,0,0-.76-.23c-.09,0-.19,0-.19-.13s.13-.15.25-.15a15.79,15.79,0,0,1,1.86.11c.3,0,.53.12.53.31a6.2,6.2,0,0,1-1.52,3.67,16.38,16.38,0,0,0,2.16,1.52,4.37,4.37,0,0,0,1.65.54c.14,0,.22,0,.22.14s-.12.14-.46.14h-1.2a4.68,4.68,0,0,1-3.66-1.19,5,5,0,0,1-3.67,1.41c-3.32,0-4.31-2.08-4.31-3.43A4.56,4.56,0,0,1,89.77,21.65Zm4.85,5.19c-.9-.77-2.39-2.23-2.79-2.66s-1.4-1.55-1.66-1.94a2.76,2.76,0,0,0-1.07,2.35,3,3,0,0,0,3,3.18A4.12,4.12,0,0,0,94.62,26.84Z"/><path class="cls-1" d="M105,21.31c0-2.36,0-2.79,0-3.29s-.15-.77-.67-.88a3.12,3.12,0,0,0-.6-.05c-.17,0-.26,0-.26-.14s.1-.14.34-.14c.82,0,1.8.05,2.23.05.64,0,1.53-.05,2.25-.05a3.73,3.73,0,0,1,2.88.89,2.68,2.68,0,0,1,.78,1.84,3.65,3.65,0,0,1-3.82,3.75h-.32c-.08,0-.19,0-.19-.14s.11-.17.44-.17a2.45,2.45,0,0,0,2.07-2.56,3,3,0,0,0-.91-2.33,2.31,2.31,0,0,0-1.55-.6,2.13,2.13,0,0,0-.61.06c-.07,0-.12.12-.12.3V24c0,1.42,0,2.65.08,3.31,0,.44.14.78.6.84a6.83,6.83,0,0,0,.79.06c.17,0,.25.05.25.13s-.12.15-.29.15c-1,0-2,0-2.41,0s-1.33,0-2,0c-.2,0-.31,0-.31-.15s.06-.13.25-.13a2.47,2.47,0,0,0,.55-.06c.32-.06.39-.4.45-.85.08-.65.08-1.88.08-3.3Z"/><path class="cls-1" d="M114.31,21.31c0-2.36,0-2.79,0-3.29s-.15-.77-.67-.88a3.12,3.12,0,0,0-.6-.05c-.17,0-.26,0-.26-.14s.1-.14.34-.14c.82,0,1.79.05,2.12.05.53,0,1.71-.05,2.19-.05a4.92,4.92,0,0,1,2.85.67,2.68,2.68,0,0,1,1,2.12c0,1.15-.48,2.2-2,3.47,1.38,1.74,2.45,3.12,3.36,4.08a3.15,3.15,0,0,0,1.74,1.06,2.45,2.45,0,0,0,.43,0c.13,0,.19.05.19.13s-.11.15-.3.15h-1.47a3.23,3.23,0,0,1-1.66-.29A7.43,7.43,0,0,1,119.43,26c-.62-.85-1.34-1.91-1.54-2.14a.34.34,0,0,0-.28-.11l-1.35,0a.11.11,0,0,0-.12.12V24c0,1.44,0,2.67.08,3.32,0,.45.14.79.6.85.24,0,.58.06.76.06s.19.05.19.13-.11.15-.31.15c-.9,0-2,0-2.28,0s-1.27,0-1.89,0c-.2,0-.31,0-.31-.15s.06-.13.25-.13a2.55,2.55,0,0,0,.55-.06c.31-.06.39-.4.45-.85.08-.65.08-1.88.08-3.3Zm1.83,1.22c0,.17,0,.23.14.28a4.06,4.06,0,0,0,1.18.16,1.55,1.55,0,0,0,1.1-.27,2.73,2.73,0,0,0,.91-2.32c0-2.2-1.45-2.84-2.37-2.84a3.82,3.82,0,0,0-.82.06c-.11,0-.14.1-.14.22Z"/><path class="cls-1" d="M123.47,22.67a6,6,0,0,1,6.4-6.08c3.86,0,6.27,2.25,6.27,5.8a6.13,6.13,0,0,1-6.42,6.36A5.91,5.91,0,0,1,123.47,22.67ZM134,23c0-3.48-2-5.63-4.55-5.63-1.78,0-3.81,1-3.81,4.85,0,3.23,1.78,5.78,4.76,5.78C131.46,28,134,27.45,134,23Z"/><path class="cls-1" d="M140.32,24c0,1.48,0,2.65.08,3.3,0,.45.14.79.6.85a6.83,6.83,0,0,0,.78.06c.2,0,.26.05.26.13s-.11.15-.34.15c-1,0-1.95,0-2.36,0s-1.38,0-2,0c-.21,0-.32,0-.32-.15s.06-.13.23-.13a2.65,2.65,0,0,0,.56-.06c.31-.06.39-.4.45-.85.08-.65.08-1.82.08-3.3V21.31c0-2.36,0-2.79,0-3.29s-.16-.77-.67-.88a3.32,3.32,0,0,0-.61-.05c-.15,0-.26,0-.26-.12s.12-.16.36-.16l1.25,0,1,0c.59,0,3.74,0,4.09,0a2.55,2.55,0,0,0,.64-.06,1,1,0,0,1,.25-.09c.06,0,.1.06.1.14s-.07.29-.12.7c0,.15,0,1.06-.08,1.25s0,.22-.15.22-.14-.08-.16-.25a1.59,1.59,0,0,0-.09-.59,1.09,1.09,0,0,0-1-.46l-2.39-.05c-.09,0-.14.05-.14.22v3.87c0,.09,0,.14.11.14h2c.27,0,.48,0,.7,0a.84.84,0,0,0,.67-.28c.07-.09.11-.15.2-.15s.09,0,.09.14-.08.48-.12,1c0,.31-.06,1-.06,1.13s0,.29-.16.29-.12-.11-.12-.21a1.46,1.46,0,0,0-.1-.48.89.89,0,0,0-.79-.56c-.38-.05-2-.05-2.29-.05-.08,0-.11,0-.11.14Z"/><path class="cls-1" d="M147.46,21.31c0-2.36,0-2.79,0-3.29s-.15-.77-.66-.88a3.32,3.32,0,0,0-.61-.05c-.17,0-.26,0-.26-.14s.11-.14.34-.14l1.26,0,1,0c.5,0,3.58,0,3.88,0a6.21,6.21,0,0,0,.66-.09,1.29,1.29,0,0,1,.25-.06c.08,0,.1.06.1.14a9.75,9.75,0,0,0-.13,1c0,.15,0,.83-.08,1s0,.17-.15.17-.14-.08-.14-.22a1.88,1.88,0,0,0-.09-.56c-.11-.28-.27-.46-1-.55-.27,0-1.89-.07-2.2-.07-.08,0-.11.05-.11.16v3.92c0,.11,0,.17.11.17.34,0,2.12,0,2.48,0a1.1,1.1,0,0,0,.74-.23c.11-.13.17-.2.25-.2s.11,0,.11.12a11.19,11.19,0,0,0-.13,1.13c0,.31-.06.93-.06,1s0,.3-.14.3a.13.13,0,0,1-.14-.14,3,3,0,0,0-.06-.56c-.08-.31-.29-.55-.87-.61-.29,0-1.83,0-2.2,0-.08,0-.09.06-.09.15V24c0,.52,0,1.95,0,2.4,0,1.07.28,1.3,1.86,1.3a4.1,4.1,0,0,0,1.46-.18c.4-.19.59-.52.69-1.15,0-.17.07-.23.17-.23s.13.12.13.27a13.44,13.44,0,0,1-.2,1.73c-.11.4-.25.4-.84.4-1.16,0-2,0-2.68,0s-1.15,0-1.61,0h-.89c-.35,0-.76,0-1.07,0s-.31,0-.31-.15.06-.13.25-.13a2.65,2.65,0,0,0,.56-.06c.31-.06.39-.4.45-.85.07-.65.07-1.88.07-3.3Z"/><path class="cls-1" d="M155.8,28.35c-.25-.11-.3-.19-.3-.53,0-.85.07-1.78.08-2s.06-.41.19-.41.15.14.15.27a3.14,3.14,0,0,0,.14.79A2.14,2.14,0,0,0,158.28,28a1.89,1.89,0,0,0,2.08-1.77c0-.76-.24-1.49-1.52-2.48l-.72-.56c-1.7-1.33-2.29-2.42-2.29-3.68,0-1.7,1.42-2.93,3.58-2.93a7.33,7.33,0,0,1,2.06.27c.14,0,.22.08.22.18s-.06.66-.06,1.86c0,.35,0,.47-.17.47s-.16-.09-.16-.28a1.9,1.9,0,0,0-.4-1,1.94,1.94,0,0,0-1.69-.76,1.63,1.63,0,0,0-1.85,1.59c0,.72.36,1.26,1.65,2.24l.43.32c1.86,1.44,2.54,2.48,2.54,4a3.12,3.12,0,0,1-1.45,2.69,4.48,4.48,0,0,1-2.47.64A5.41,5.41,0,0,1,155.8,28.35Z"/><path class="cls-1" d="M164.12,28.35c-.24-.11-.29-.19-.29-.53,0-.85.06-1.78.08-2s.06-.41.18-.41.16.14.16.27a3.14,3.14,0,0,0,.14.79A2.13,2.13,0,0,0,166.6,28a1.89,1.89,0,0,0,2.08-1.77c0-.76-.23-1.49-1.52-2.48l-.71-.56c-1.71-1.33-2.3-2.42-2.3-3.68,0-1.7,1.43-2.93,3.58-2.93a7.48,7.48,0,0,1,2.07.27c.14,0,.21.08.21.18s-.06.66-.06,1.86c0,.35,0,.47-.17.47s-.15-.09-.15-.28a1.85,1.85,0,0,0-.41-1,1.94,1.94,0,0,0-1.69-.76,1.63,1.63,0,0,0-1.84,1.59c0,.72.35,1.26,1.64,2.24l.44.32c1.86,1.44,2.54,2.48,2.54,4a3.11,3.11,0,0,1-1.46,2.69,4.43,4.43,0,0,1-2.46.64A5.48,5.48,0,0,1,164.12,28.35Z"/><path class="cls-1" d="M173.26,21.31c0-2.36,0-2.79,0-3.29s-.19-.79-.53-.87a2.53,2.53,0,0,0-.56-.06c-.15,0-.24,0-.24-.15s.12-.13.37-.13c.59,0,1.56.05,2,.05s1.31-.05,1.89-.05c.21,0,.33,0,.33.13s-.09.15-.25.15a2.68,2.68,0,0,0-.46.05c-.42.07-.54.34-.58.88s0,.93,0,3.29V24c0,1.5,0,2.72.07,3.39,0,.42.15.7.62.76a6.5,6.5,0,0,0,.79.06c.17,0,.24.05.24.13s-.12.15-.29.15c-1,0-2,0-2.42,0s-1.33,0-1.95,0c-.2,0-.31,0-.31-.15s.06-.13.24-.13a2.58,2.58,0,0,0,.56-.06c.31-.06.41-.32.45-.77.08-.66.08-1.88.08-3.38Z"/><path class="cls-1" d="M177.73,22.67a6,6,0,0,1,6.41-6.08c3.86,0,6.26,2.25,6.26,5.8A6.13,6.13,0,0,1,184,28.75,5.91,5.91,0,0,1,177.73,22.67Zm10.5.3c0-3.48-2-5.63-4.54-5.63-1.79,0-3.82,1-3.82,4.85,0,3.23,1.79,5.78,4.76,5.78C185.72,28,188.23,27.45,188.23,23Z"/><path class="cls-1" d="M194,26.42c0,1.21.24,1.62.55,1.72a2.24,2.24,0,0,0,.8.11c.17,0,.27,0,.27.13s-.14.15-.36.15c-1,0-1.63,0-1.92,0-.14,0-.87,0-1.68,0-.2,0-.34,0-.34-.15s.09-.13.25-.13a2.87,2.87,0,0,0,.7-.07c.4-.13.46-.58.48-1.93l.14-9.17c0-.31,0-.53.2-.53s.31.2.57.48,2.54,2.73,4.81,5c1.05,1,3.15,3.28,3.41,3.53H202l-.16-7c0-.95-.15-1.24-.53-1.4a2.58,2.58,0,0,0-.82-.09c-.18,0-.25-.05-.25-.14s.17-.14.41-.14c.8,0,1.55.05,1.87.05.17,0,.76-.05,1.52-.05.2,0,.36,0,.36.14s-.09.14-.28.14a1.51,1.51,0,0,0-.46.05c-.44.12-.56.45-.58,1.32l-.17,9.78c0,.34-.06.48-.2.48s-.36-.17-.53-.34c-1-.93-3-3-4.57-4.56s-3.41-3.61-3.69-3.91h0Z"/><path class="cls-1" d="M207.75,24.49c-.08,0-.11,0-.14.12l-.84,2.22a2.82,2.82,0,0,0-.23.94c0,.28.14.48.62.48h.23c.19,0,.23,0,.23.13s-.09.15-.26.15c-.5,0-1.16,0-1.65,0-.17,0-1,0-1.83,0-.2,0-.29,0-.29-.15s.06-.13.19-.13a3.75,3.75,0,0,0,.48,0c.71-.09,1-.62,1.32-1.39l3.89-9.74c.18-.45.28-.62.43-.62s.23.14.39.5c.37.85,2.85,7.17,3.84,9.53.59,1.4,1,1.61,1.37,1.69a3.08,3.08,0,0,0,.65.06c.12,0,.2,0,.2.13s-.14.15-.71.15-1.69,0-2.93,0c-.28,0-.47,0-.47-.12s.06-.13.22-.14a.26.26,0,0,0,.14-.36l-1.24-3.29a.15.15,0,0,0-.16-.1Zm3.16-.78c.08,0,.09-.05.08-.09l-1.4-3.83c0-.06,0-.14-.08-.14s-.07.08-.09.14L208,23.6c0,.06,0,.11.07.11Z"/><path class="cls-1" d="M219.37,24c0,2,0,3.05.33,3.33s.66.34,1.87.34c.82,0,1.43,0,1.82-.43a2,2,0,0,0,.4-.93c0-.14.05-.24.17-.24s.12.08.12.27a12.74,12.74,0,0,1-.23,1.78c-.09.34-.17.42-1,.42-1.11,0-1.92,0-2.62,0s-1.25,0-1.89,0h-.88l-1.07,0c-.2,0-.31,0-.31-.15s.06-.13.25-.13a2.65,2.65,0,0,0,.56-.06c.31-.06.38-.4.45-.85.07-.65.07-1.88.07-3.3V21.31c0-2.36,0-2.79,0-3.29s-.15-.77-.66-.88a2.47,2.47,0,0,0-.52-.05c-.17,0-.26,0-.26-.14s.11-.14.34-.14c.73,0,1.71.05,2.12.05s1.51-.05,2.11-.05c.22,0,.33,0,.33.14s-.09.14-.28.14a4.16,4.16,0,0,0-.6.05c-.42.07-.55.34-.58.88s0,.93,0,3.29Z"/><path class="cls-1" d="M88.88,37.81c0-2.36,0-2.79,0-3.29s-.15-.77-.67-.88a3.12,3.12,0,0,0-.6,0c-.17,0-.26,0-.26-.14s.1-.14.34-.14l1.25,0,1,0c.5,0,3.58,0,3.88,0a6.21,6.21,0,0,0,.66-.09,1.14,1.14,0,0,1,.25-.06c.08,0,.09.06.09.14s-.07.29-.12,1c0,.15-.05.83-.08,1s0,.17-.15.17-.14-.08-.14-.22a1.65,1.65,0,0,0-.1-.56c-.1-.28-.26-.46-1-.55-.27,0-1.9-.07-2.21-.07-.07,0-.1,0-.1.16v3.92c0,.11,0,.17.1.17.35,0,2.13,0,2.48,0a1.11,1.11,0,0,0,.75-.23c.11-.13.17-.2.25-.2s.11,0,.11.12a11.19,11.19,0,0,0-.13,1.13c0,.31-.06.93-.06,1s0,.3-.14.3a.13.13,0,0,1-.14-.14c0-.16,0-.36-.06-.56s-.3-.55-.87-.61c-.29,0-1.83,0-2.2,0-.08,0-.09.06-.09.15v1.23c0,.52,0,2,0,2.4,0,1.07.28,1.3,1.86,1.3a4,4,0,0,0,1.45-.18c.41-.19.59-.52.7-1.15,0-.17.06-.23.17-.23s.13.12.13.27a11.86,11.86,0,0,1-.21,1.73c-.1.4-.24.4-.83.4-1.17,0-2,0-2.69,0s-1.14,0-1.61,0h-.88l-1.07,0c-.2,0-.31,0-.31-.15s.06-.13.25-.13a2.65,2.65,0,0,0,.56-.06c.31-.06.38-.4.44-.85.08-.65.08-1.88.08-3.3Z"/><path class="cls-1" d="M98.08,37.81c0-2.36,0-2.79,0-3.29s-.15-.77-.66-.88a3.32,3.32,0,0,0-.61,0c-.17,0-.26,0-.26-.14s.11-.14.34-.14c.82,0,1.8,0,2.23,0s1.46,0,2.39,0c1.94,0,4.52,0,6.22,1.77A5.56,5.56,0,0,1,109.2,39a6.14,6.14,0,0,1-1.69,4.32,7.06,7.06,0,0,1-5.19,1.83c-.56,0-1.2,0-1.79-.09S99.4,45,99,45h-.88l-1.07,0c-.2,0-.31,0-.31-.15s.06-.13.25-.13a2.65,2.65,0,0,0,.56-.06c.31-.06.38-.4.45-.85.07-.65.07-1.88.07-3.3Zm1.94,1.7c0,1.65,0,2.84,0,3.13a3.6,3.6,0,0,0,.17,1.18c.2.3.81.62,2,.62a5,5,0,0,0,3.57-1.11,4.92,4.92,0,0,0,1.3-3.86,5.27,5.27,0,0,0-1.49-3.88,6.15,6.15,0,0,0-4.4-1.55,4.29,4.29,0,0,0-1,.11c-.14.06-.18.14-.18.31,0,.53,0,1.88,0,3.1Z"/><path class="cls-1" d="M111.25,37.81c0-2.36,0-2.79,0-3.29s-.15-.77-.66-.88a3.32,3.32,0,0,0-.61,0c-.17,0-.26,0-.26-.14s.11-.14.34-.14c.82,0,1.8,0,2.26,0s1.35,0,1.91,0c.23,0,.34,0,.34.14s-.09.14-.25.14a2.28,2.28,0,0,0-.44,0c-.42.07-.55.34-.58.88s0,.93,0,3.29V40c0,2.25.45,3.19,1.21,3.81a2.85,2.85,0,0,0,1.94.64,3,3,0,0,0,2.14-.84c.85-.85.9-2.25.9-3.84V37.81c0-2.36,0-2.79,0-3.29s-.15-.77-.66-.88a3.15,3.15,0,0,0-.56,0c-.17,0-.26,0-.26-.14s.1-.14.32-.14c.79,0,1.77,0,1.78,0,.19,0,1.17,0,1.77,0,.22,0,.33,0,.33.14s-.1.14-.28.14a2.38,2.38,0,0,0-.45,0c-.42.07-.54.34-.57.88s0,.93,0,3.29v1.66c0,1.72-.17,3.55-1.47,4.66a4.6,4.6,0,0,1-3.22,1.12,5,5,0,0,1-3.44-1.07c-.79-.71-1.38-1.86-1.38-4.11Z"/><path class="cls-1" d="M124.7,43.56a6.15,6.15,0,0,1-.11-8.82,6.74,6.74,0,0,1,4.9-1.65,15.69,15.69,0,0,1,2.25.16c.59.08,1.09.22,1.55.26.17,0,.23.1.23.19s0,.31-.07.85,0,1.37,0,1.68-.05.35-.19.35-.15-.12-.15-.34a2.21,2.21,0,0,0-.61-1.42,4.57,4.57,0,0,0-3.14-1,4.07,4.07,0,0,0-2.92,1,5.16,5.16,0,0,0-1.42,4,5.21,5.21,0,0,0,4.88,5.52c1.38,0,2.22-.16,2.84-.87a2.54,2.54,0,0,0,.52-1c0-.25.08-.31.21-.31s.13.11.13.23a13.75,13.75,0,0,1-.34,2.06.53.53,0,0,1-.4.45,8.92,8.92,0,0,1-2.79.36A7.79,7.79,0,0,1,124.7,43.56Z"/><path class="cls-1" d="M138,41c-.08,0-.11,0-.14.12L137,43.33a3.1,3.1,0,0,0-.23.94c0,.28.14.48.62.48h.23c.19,0,.23,0,.23.13s-.09.15-.26.15c-.5,0-1.16,0-1.64,0-.17,0-1,0-1.83,0-.2,0-.3,0-.3-.15s.06-.13.19-.13a3.64,3.64,0,0,0,.48,0c.71-.09,1-.62,1.32-1.39l3.89-9.74c.18-.45.28-.62.43-.62s.23.14.39.5c.37.85,2.85,7.17,3.84,9.53.59,1.4,1,1.61,1.37,1.69a3.08,3.08,0,0,0,.65.06c.12,0,.2,0,.2.13s-.14.15-.71.15-1.69,0-2.93,0c-.28,0-.47,0-.47-.12s.07-.13.22-.14a.25.25,0,0,0,.14-.36l-1.24-3.29a.15.15,0,0,0-.16-.1Zm3.16-.78c.08,0,.09-.05.08-.09l-1.4-3.83c0-.06,0-.14-.08-.14s-.07.08-.09.14l-1.42,3.81c0,.06,0,.11.06.11Z"/><path class="cls-1" d="M149.3,34.18l-2.31.06c-.9,0-1.27.11-1.5.45a2,2,0,0,0-.27.54c0,.13-.07.19-.17.19s-.14-.08-.14-.25.3-1.66.33-1.78.09-.3.19-.3a3.37,3.37,0,0,0,.66.19,15.14,15.14,0,0,0,1.55.08h6.14a7.41,7.41,0,0,0,1.07-.08,3.19,3.19,0,0,1,.42-.08c.11,0,.12.1.12.33s0,1.39,0,1.8c0,.15,0,.25-.14.25s-.16-.08-.17-.31l0-.18c0-.4-.45-.83-1.83-.86l-1.95,0v6.36c0,1.42,0,2.65.08,3.31,0,.44.14.78.6.84a6.83,6.83,0,0,0,.79.06c.17,0,.25,0,.25.13s-.12.15-.29.15c-1,0-2,0-2.44,0s-1.33,0-1.95,0c-.2,0-.31,0-.31-.15s.06-.13.25-.13a2.55,2.55,0,0,0,.55-.06c.32-.06.41-.4.45-.85.08-.65.08-1.88.08-3.3Z"/><path class="cls-1" d="M158.09,37.81c0-2.36,0-2.79,0-3.29s-.19-.79-.53-.87a2.53,2.53,0,0,0-.56-.06c-.15,0-.25,0-.25-.15s.13-.13.37-.13c.59,0,1.57,0,2,0s1.3,0,1.89,0c.2,0,.33,0,.33.13s-.1.15-.25.15a2.79,2.79,0,0,0-.47,0c-.41.07-.54.34-.57.88s0,.93,0,3.29v2.73c0,1.5,0,2.72.06,3.39.05.42.16.7.62.76a6.83,6.83,0,0,0,.79.06c.17,0,.25,0,.25.13s-.12.15-.29.15c-1,0-2,0-2.42,0s-1.34,0-2,0c-.2,0-.31,0-.31-.15s.07-.13.25-.13a2.65,2.65,0,0,0,.56-.06c.31-.06.4-.32.45-.77.08-.66.08-1.88.08-3.38Z"/><path class="cls-1" d="M162.56,39.17a6,6,0,0,1,6.4-6.08c3.86,0,6.27,2.25,6.27,5.8a6.13,6.13,0,0,1-6.42,6.36A5.91,5.91,0,0,1,162.56,39.17Zm10.49.3c0-3.48-2-5.63-4.54-5.63-1.78,0-3.81,1-3.81,4.85,0,3.23,1.78,5.78,4.76,5.78C170.54,44.47,173.05,44,173.05,39.47Z"/><path class="cls-1" d="M178.84,42.92c0,1.21.23,1.62.54,1.72a2.33,2.33,0,0,0,.81.11c.17,0,.26,0,.26.13s-.14.15-.36.15c-1,0-1.62,0-1.92,0-.14,0-.87,0-1.67,0-.2,0-.34,0-.34-.15s.09-.13.25-.13a2.74,2.74,0,0,0,.69-.07c.41-.13.47-.58.48-1.93l.14-9.17c0-.31.05-.53.2-.53s.31.2.58.48,2.54,2.73,4.8,5c1.06,1.05,3.15,3.28,3.41,3.53h.08l-.15-7c0-.95-.16-1.24-.53-1.4a2.61,2.61,0,0,0-.82-.09c-.19,0-.25-.05-.25-.14s.17-.14.4-.14c.81,0,1.55,0,1.88,0,.17,0,.76,0,1.52,0,.2,0,.36,0,.36.14s-.1.14-.28.14a1.6,1.6,0,0,0-.47,0c-.43.12-.56.45-.57,1.32l-.17,9.78c0,.34-.07.48-.21.48s-.35-.17-.52-.34c-1-.93-3-3-4.58-4.56s-3.41-3.61-3.69-3.91h0Z"/></svg>